<?xml version="1.0" encoding="UTF-8" standalone="no"?>
<!DOCTYPE svg PUBLIC "-//W3C//DTD SVG 1.0//EN" "http://www.w3.org/TR/2001/PR-SVG-20010719/DTD/svg10.dtd">
<svg width="44cm" height="32cm" viewBox="40 -640 880 640" xmlns="http://www.w3.org/2000/svg" xmlns:xlink="http://www.w3.org/1999/xlink">
  <rect style="fill: none; fill-opacity:0; stroke-width: 2.35099e-37; stroke: #000000" x="40" y="-640" width="880" height="640"/>
  <g>
    <g>
      <rect style="fill: #ffffff" x="70" y="-60" width="780" height="40"/>
      <path style="fill: #ffffff" d="M 70,-60 A 10,10 0 0 0 60,-50 L 70,-50 z"/>
      <path style="fill: #ffffff" d="M 860,-50 A 10,10 0 0 0 850,-60 L 850,-50 z"/>
      <rect style="fill: #ffffff" x="60" y="-50" width="800" height="20"/>
      <path style="fill: #ffffff" d="M 60,-30 A 10,10 0 0 0 70,-20 L 70,-30 z"/>
      <path style="fill: #ffffff" d="M 850,-20 A 10,10 0 0 0 860,-30 L 850,-30 z"/>
      <line style="fill: none; fill-opacity:0; stroke-width: 2; stroke: #000000" x1="70" y1="-60" x2="850" y2="-60"/>
      <line style="fill: none; fill-opacity:0; stroke-width: 2; stroke: #000000" x1="70" y1="-20" x2="850" y2="-20"/>
      <path style="fill: none; fill-opacity:0; stroke-width: 2; stroke: #000000" d="M 70,-60 A 10,10 0 0 0 60,-50"/>
      <path style="fill: none; fill-opacity:0; stroke-width: 2; stroke: #000000" d="M 860,-50 A 10,10 0 0 0 850,-60"/>
      <line style="fill: none; fill-opacity:0; stroke-width: 2; stroke: #000000" x1="60" y1="-50" x2="60" y2="-30"/>
      <line style="fill: none; fill-opacity:0; stroke-width: 2; stroke: #000000" x1="860" y1="-50" x2="860" y2="-30"/>
      <path style="fill: none; fill-opacity:0; stroke-width: 2; stroke: #000000" d="M 60,-30 A 10,10 0 0 0 70,-20"/>
      <path style="fill: none; fill-opacity:0; stroke-width: 2; stroke: #000000" d="M 850,-20 A 10,10 0 0 0 860,-30"/>
      <text font-size="18.0622" style="fill: #000000;text-anchor:middle;font-family:sans-serif;font-style:normal;font-weight:normal" x="460" y="-34.4889">
        <tspan x="460" y="-34.4889">CPU / Hardware</tspan>
      </text>
    </g>
    <g>
      <rect style="fill: #ffffff" x="70" y="-100" width="780" height="40"/>
      <path style="fill: #ffffff" d="M 70,-100 A 10,10 0 0 0 60,-90 L 70,-90 z"/>
      <path style="fill: #ffffff" d="M 860,-90 A 10,10 0 0 0 850,-100 L 850,-90 z"/>
      <rect style="fill: #ffffff" x="60" y="-90" width="800" height="20"/>
      <path style="fill: #ffffff" d="M 60,-70 A 10,10 0 0 0 70,-60 L 70,-70 z"/>
      <path style="fill: #ffffff" d="M 850,-60 A 10,10 0 0 0 860,-70 L 850,-70 z"/>
      <line style="fill: none; fill-opacity:0; stroke-width: 2; stroke: #000000" x1="70" y1="-100" x2="850" y2="-100"/>
      <line style="fill: none; fill-opacity:0; stroke-width: 2; stroke: #000000" x1="70" y1="-60" x2="850" y2="-60"/>
      <path style="fill: none; fill-opacity:0; stroke-width: 2; stroke: #000000" d="M 70,-100 A 10,10 0 0 0 60,-90"/>
      <path style="fill: none; fill-opacity:0; stroke-width: 2; stroke: #000000" d="M 860,-90 A 10,10 0 0 0 850,-100"/>
      <line style="fill: none; fill-opacity:0; stroke-width: 2; stroke: #000000" x1="60" y1="-90" x2="60" y2="-70"/>
      <line style="fill: none; fill-opacity:0; stroke-width: 2; stroke: #000000" x1="860" y1="-90" x2="860" y2="-70"/>
      <path style="fill: none; fill-opacity:0; stroke-width: 2; stroke: #000000" d="M 60,-70 A 10,10 0 0 0 70,-60"/>
      <path style="fill: none; fill-opacity:0; stroke-width: 2; stroke: #000000" d="M 850,-60 A 10,10 0 0 0 860,-70"/>
      <text font-size="18.0622" style="fill: #000000;text-anchor:middle;font-family:sans-serif;font-style:normal;font-weight:normal" x="460" y="-74.4889">
        <tspan x="460" y="-74.4889">Linux Kernel</tspan>
      </text>
    </g>
    <g>
      <rect style="fill: #ffffff" x="70" y="-140" width="780" height="40"/>
      <path style="fill: #ffffff" d="M 70,-140 A 10,10 0 0 0 60,-130 L 70,-130 z"/>
      <path style="fill: #ffffff" d="M 860,-130 A 10,10 0 0 0 850,-140 L 850,-130 z"/>
      <rect style="fill: #ffffff" x="60" y="-130" width="800" height="20"/>
      <path style="fill: #ffffff" d="M 60,-110 A 10,10 0 0 0 70,-100 L 70,-110 z"/>
      <path style="fill: #ffffff" d="M 850,-100 A 10,10 0 0 0 860,-110 L 850,-110 z"/>
      <line style="fill: none; fill-opacity:0; stroke-width: 2; stroke: #000000" x1="70" y1="-140" x2="850" y2="-140"/>
      <line style="fill: none; fill-opacity:0; stroke-width: 2; stroke: #000000" x1="70" y1="-100" x2="850" y2="-100"/>
      <path style="fill: none; fill-opacity:0; stroke-width: 2; stroke: #000000" d="M 70,-140 A 10,10 0 0 0 60,-130"/>
      <path style="fill: none; fill-opacity:0; stroke-width: 2; stroke: #000000" d="M 860,-130 A 10,10 0 0 0 850,-140"/>
      <line style="fill: none; fill-opacity:0; stroke-width: 2; stroke: #000000" x1="60" y1="-130" x2="60" y2="-110"/>
      <line style="fill: none; fill-opacity:0; stroke-width: 2; stroke: #000000" x1="860" y1="-130" x2="860" y2="-110"/>
      <path style="fill: none; fill-opacity:0; stroke-width: 2; stroke: #000000" d="M 60,-110 A 10,10 0 0 0 70,-100"/>
      <path style="fill: none; fill-opacity:0; stroke-width: 2; stroke: #000000" d="M 850,-100 A 10,10 0 0 0 860,-110"/>
      <text font-size="18.0622" style="fill: #000000;text-anchor:middle;font-family:sans-serif;font-style:normal;font-weight:normal" x="460" y="-114.489">
        <tspan x="460" y="-114.489">Root File System</tspan>
      </text>
    </g>
  </g>
  <g>
    <rect style="fill: #ffffff" x="70" y="-520" width="120" height="361.4"/>
    <path style="fill: #ffffff" d="M 70,-520 A 10,10 0 0 0 60,-510 L 70,-510 z"/>
    <path style="fill: #ffffff" d="M 200,-510 A 10,10 0 0 0 190,-520 L 190,-510 z"/>
    <rect style="fill: #ffffff" x="60" y="-510" width="140" height="341.4"/>
    <path style="fill: #ffffff" d="M 60,-168.6 A 10,10 0 0 0 70,-158.6 L 70,-168.6 z"/>
    <path style="fill: #ffffff" d="M 190,-158.6 A 10,10 0 0 0 200,-168.6 L 190,-168.6 z"/>
    <line style="fill: none; fill-opacity:0; stroke-width: 2; stroke: #000000" x1="70" y1="-520" x2="190" y2="-520"/>
    <line style="fill: none; fill-opacity:0; stroke-width: 2; stroke: #000000" x1="70" y1="-158.6" x2="190" y2="-158.6"/>
    <path style="fill: none; fill-opacity:0; stroke-width: 2; stroke: #000000" d="M 70,-520 A 10,10 0 0 0 60,-510"/>
    <path style="fill: none; fill-opacity:0; stroke-width: 2; stroke: #000000" d="M 200,-510 A 10,10 0 0 0 190,-520"/>
    <line style="fill: none; fill-opacity:0; stroke-width: 2; stroke: #000000" x1="60" y1="-510" x2="60" y2="-168.6"/>
    <line style="fill: none; fill-opacity:0; stroke-width: 2; stroke: #000000" x1="200" y1="-510" x2="200" y2="-168.6"/>
    <path style="fill: none; fill-opacity:0; stroke-width: 2; stroke: #000000" d="M 60,-168.6 A 10,10 0 0 0 70,-158.6"/>
    <path style="fill: none; fill-opacity:0; stroke-width: 2; stroke: #000000" d="M 190,-158.6 A 10,10 0 0 0 200,-168.6"/>
    <text font-size="18.0622" style="fill: #000000;text-anchor:middle;font-family:sans-serif;font-style:normal;font-weight:normal" x="130" y="-333.789">
      <tspan x="130" y="-333.789"></tspan>
    </text>
  </g>
  <g>
    <rect style="fill: #fcdce2" x="90" y="-240" width="80" height="40"/>
    <path style="fill: #fcdce2" d="M 90,-240 A 10,10 0 0 0 80,-230 L 90,-230 z"/>
    <path style="fill: #fcdce2" d="M 180,-230 A 10,10 0 0 0 170,-240 L 170,-230 z"/>
    <rect style="fill: #fcdce2" x="80" y="-230" width="100" height="20"/>
    <path style="fill: #fcdce2" d="M 80,-210 A 10,10 0 0 0 90,-200 L 90,-210 z"/>
    <path style="fill: #fcdce2" d="M 170,-200 A 10,10 0 0 0 180,-210 L 170,-210 z"/>
    <line style="fill: none; fill-opacity:0; stroke-width: 2; stroke: #000000" x1="90" y1="-240" x2="170" y2="-240"/>
    <line style="fill: none; fill-opacity:0; stroke-width: 2; stroke: #000000" x1="90" y1="-200" x2="170" y2="-200"/>
    <path style="fill: none; fill-opacity:0; stroke-width: 2; stroke: #000000" d="M 90,-240 A 10,10 0 0 0 80,-230"/>
    <path style="fill: none; fill-opacity:0; stroke-width: 2; stroke: #000000" d="M 180,-230 A 10,10 0 0 0 170,-240"/>
    <line style="fill: none; fill-opacity:0; stroke-width: 2; stroke: #000000" x1="80" y1="-230" x2="80" y2="-210"/>
    <line style="fill: none; fill-opacity:0; stroke-width: 2; stroke: #000000" x1="180" y1="-230" x2="180" y2="-210"/>
    <path style="fill: none; fill-opacity:0; stroke-width: 2; stroke: #000000" d="M 80,-210 A 10,10 0 0 0 90,-200"/>
    <path style="fill: none; fill-opacity:0; stroke-width: 2; stroke: #000000" d="M 170,-200 A 10,10 0 0 0 180,-210"/>
    <text font-size="18.0622" style="fill: #000000;text-anchor:middle;font-family:sans-serif;font-style:normal;font-weight:normal" x="130" y="-214.489">
      <tspan x="130" y="-214.489">libdl.so</tspan>
    </text>
  </g>
  <g>
    <rect style="fill: #fcdce2" x="90" y="-200" width="80" height="37.0711"/>
    <path style="fill: #fcdce2" d="M 90,-200 A 10,10 0 0 0 80,-190 L 90,-190 z"/>
    <path style="fill: #fcdce2" d="M 180,-190 A 10,10 0 0 0 170,-200 L 170,-190 z"/>
    <rect style="fill: #fcdce2" x="80" y="-190" width="100" height="17.0711"/>
    <path style="fill: #fcdce2" d="M 80,-172.929 A 10,10 0 0 0 90,-162.929 L 90,-172.929 z"/>
    <path style="fill: #fcdce2" d="M 170,-162.929 A 10,10 0 0 0 180,-172.929 L 170,-172.929 z"/>
    <line style="fill: none; fill-opacity:0; stroke-width: 2; stroke: #000000" x1="90" y1="-200" x2="170" y2="-200"/>
    <line style="fill: none; fill-opacity:0; stroke-width: 2; stroke: #000000" x1="90" y1="-162.929" x2="170" y2="-162.929"/>
    <path style="fill: none; fill-opacity:0; stroke-width: 2; stroke: #000000" d="M 90,-200 A 10,10 0 0 0 80,-190"/>
    <path style="fill: none; fill-opacity:0; stroke-width: 2; stroke: #000000" d="M 180,-190 A 10,10 0 0 0 170,-200"/>
    <line style="fill: none; fill-opacity:0; stroke-width: 2; stroke: #000000" x1="80" y1="-190" x2="80" y2="-172.929"/>
    <line style="fill: none; fill-opacity:0; stroke-width: 2; stroke: #000000" x1="180" y1="-190" x2="180" y2="-172.929"/>
    <path style="fill: none; fill-opacity:0; stroke-width: 2; stroke: #000000" d="M 80,-172.929 A 10,10 0 0 0 90,-162.929"/>
    <path style="fill: none; fill-opacity:0; stroke-width: 2; stroke: #000000" d="M 170,-162.929 A 10,10 0 0 0 180,-172.929"/>
    <text font-size="18.0622" style="fill: #000000;text-anchor:middle;font-family:sans-serif;font-style:normal;font-weight:normal" x="130" y="-175.953">
      <tspan x="130" y="-175.953">libc.so</tspan>
    </text>
  </g>
  <g>
    <rect style="fill: #00a300" x="90" y="-380" width="80" height="40"/>
    <path style="fill: #00a300" d="M 90,-380 A 10,10 0 0 0 80,-370 L 90,-370 z"/>
    <path style="fill: #00a300" d="M 180,-370 A 10,10 0 0 0 170,-380 L 170,-370 z"/>
    <rect style="fill: #00a300" x="80" y="-370" width="100" height="20"/>
    <path style="fill: #00a300" d="M 80,-350 A 10,10 0 0 0 90,-340 L 90,-350 z"/>
    <path style="fill: #00a300" d="M 170,-340 A 10,10 0 0 0 180,-350 L 170,-350 z"/>
    <line style="fill: none; fill-opacity:0; stroke-width: 2; stroke: #000000" x1="90" y1="-380" x2="170" y2="-380"/>
    <line style="fill: none; fill-opacity:0; stroke-width: 2; stroke: #000000" x1="90" y1="-340" x2="170" y2="-340"/>
    <path style="fill: none; fill-opacity:0; stroke-width: 2; stroke: #000000" d="M 90,-380 A 10,10 0 0 0 80,-370"/>
    <path style="fill: none; fill-opacity:0; stroke-width: 2; stroke: #000000" d="M 180,-370 A 10,10 0 0 0 170,-380"/>
    <line style="fill: none; fill-opacity:0; stroke-width: 2; stroke: #000000" x1="80" y1="-370" x2="80" y2="-350"/>
    <line style="fill: none; fill-opacity:0; stroke-width: 2; stroke: #000000" x1="180" y1="-370" x2="180" y2="-350"/>
    <path style="fill: none; fill-opacity:0; stroke-width: 2; stroke: #000000" d="M 80,-350 A 10,10 0 0 0 90,-340"/>
    <path style="fill: none; fill-opacity:0; stroke-width: 2; stroke: #000000" d="M 170,-340 A 10,10 0 0 0 180,-350"/>
    <text font-size="18.0622" style="fill: #000000;text-anchor:middle;font-family:sans-serif;font-style:normal;font-weight:normal" x="130" y="-354.489">
      <tspan x="130" y="-354.489">vi</tspan>
    </text>
  </g>
  <g>
    <rect style="fill: #fcdce2" x="90" y="-280" width="80" height="40"/>
    <path style="fill: #fcdce2" d="M 90,-280 A 10,10 0 0 0 80,-270 L 90,-270 z"/>
    <path style="fill: #fcdce2" d="M 180,-270 A 10,10 0 0 0 170,-280 L 170,-270 z"/>
    <rect style="fill: #fcdce2" x="80" y="-270" width="100" height="20"/>
    <path style="fill: #fcdce2" d="M 80,-250 A 10,10 0 0 0 90,-240 L 90,-250 z"/>
    <path style="fill: #fcdce2" d="M 170,-240 A 10,10 0 0 0 180,-250 L 170,-250 z"/>
    <line style="fill: none; fill-opacity:0; stroke-width: 2; stroke: #000000" x1="90" y1="-280" x2="170" y2="-280"/>
    <line style="fill: none; fill-opacity:0; stroke-width: 2; stroke: #000000" x1="90" y1="-240" x2="170" y2="-240"/>
    <path style="fill: none; fill-opacity:0; stroke-width: 2; stroke: #000000" d="M 90,-280 A 10,10 0 0 0 80,-270"/>
    <path style="fill: none; fill-opacity:0; stroke-width: 2; stroke: #000000" d="M 180,-270 A 10,10 0 0 0 170,-280"/>
    <line style="fill: none; fill-opacity:0; stroke-width: 2; stroke: #000000" x1="80" y1="-270" x2="80" y2="-250"/>
    <line style="fill: none; fill-opacity:0; stroke-width: 2; stroke: #000000" x1="180" y1="-270" x2="180" y2="-250"/>
    <path style="fill: none; fill-opacity:0; stroke-width: 2; stroke: #000000" d="M 80,-250 A 10,10 0 0 0 90,-240"/>
    <path style="fill: none; fill-opacity:0; stroke-width: 2; stroke: #000000" d="M 170,-240 A 10,10 0 0 0 180,-250"/>
    <text font-size="18.0622" style="fill: #000000;text-anchor:middle;font-family:sans-serif;font-style:normal;font-weight:normal" x="130" y="-254.489">
      <tspan x="130" y="-254.489">libz.so</tspan>
    </text>
  </g>
  <g>
    <rect style="fill: #fcdce2" x="90" y="-320" width="80" height="40"/>
    <path style="fill: #fcdce2" d="M 90,-320 A 10,10 0 0 0 80,-310 L 90,-310 z"/>
    <path style="fill: #fcdce2" d="M 180,-310 A 10,10 0 0 0 170,-320 L 170,-310 z"/>
    <rect style="fill: #fcdce2" x="80" y="-310" width="100" height="20"/>
    <path style="fill: #fcdce2" d="M 80,-290 A 10,10 0 0 0 90,-280 L 90,-290 z"/>
    <path style="fill: #fcdce2" d="M 170,-280 A 10,10 0 0 0 180,-290 L 170,-290 z"/>
    <line style="fill: none; fill-opacity:0; stroke-width: 2; stroke: #000000" x1="90" y1="-320" x2="170" y2="-320"/>
    <line style="fill: none; fill-opacity:0; stroke-width: 2; stroke: #000000" x1="90" y1="-280" x2="170" y2="-280"/>
    <path style="fill: none; fill-opacity:0; stroke-width: 2; stroke: #000000" d="M 90,-320 A 10,10 0 0 0 80,-310"/>
    <path style="fill: none; fill-opacity:0; stroke-width: 2; stroke: #000000" d="M 180,-310 A 10,10 0 0 0 170,-320"/>
    <line style="fill: none; fill-opacity:0; stroke-width: 2; stroke: #000000" x1="80" y1="-310" x2="80" y2="-290"/>
    <line style="fill: none; fill-opacity:0; stroke-width: 2; stroke: #000000" x1="180" y1="-310" x2="180" y2="-290"/>
    <path style="fill: none; fill-opacity:0; stroke-width: 2; stroke: #000000" d="M 80,-290 A 10,10 0 0 0 90,-280"/>
    <path style="fill: none; fill-opacity:0; stroke-width: 2; stroke: #000000" d="M 170,-280 A 10,10 0 0 0 180,-290"/>
    <text font-size="18.0622" style="fill: #000000;text-anchor:middle;font-family:sans-serif;font-style:normal;font-weight:normal" x="130" y="-294.489">
      <tspan x="130" y="-294.489">. . . .so</tspan>
    </text>
  </g>
  <g>
    <rect style="fill: #add8e6" x="90" y="-500" width="80" height="100"/>
    <path style="fill: #add8e6" d="M 90,-500 A 10,10 0 0 0 80,-490 L 90,-490 z"/>
    <path style="fill: #add8e6" d="M 180,-490 A 10,10 0 0 0 170,-500 L 170,-490 z"/>
    <rect style="fill: #add8e6" x="80" y="-490" width="100" height="80"/>
    <path style="fill: #add8e6" d="M 80,-410 A 10,10 0 0 0 90,-400 L 90,-410 z"/>
    <path style="fill: #add8e6" d="M 170,-400 A 10,10 0 0 0 180,-410 L 170,-410 z"/>
    <line style="fill: none; fill-opacity:0; stroke-width: 2; stroke: #000000" x1="90" y1="-500" x2="170" y2="-500"/>
    <line style="fill: none; fill-opacity:0; stroke-width: 2; stroke: #000000" x1="90" y1="-400" x2="170" y2="-400"/>
    <path style="fill: none; fill-opacity:0; stroke-width: 2; stroke: #000000" d="M 90,-500 A 10,10 0 0 0 80,-490"/>
    <path style="fill: none; fill-opacity:0; stroke-width: 2; stroke: #000000" d="M 180,-490 A 10,10 0 0 0 170,-500"/>
    <line style="fill: none; fill-opacity:0; stroke-width: 2; stroke: #000000" x1="80" y1="-490" x2="80" y2="-410"/>
    <line style="fill: none; fill-opacity:0; stroke-width: 2; stroke: #000000" x1="180" y1="-490" x2="180" y2="-410"/>
    <path style="fill: none; fill-opacity:0; stroke-width: 2; stroke: #000000" d="M 80,-410 A 10,10 0 0 0 90,-400"/>
    <path style="fill: none; fill-opacity:0; stroke-width: 2; stroke: #000000" d="M 170,-400 A 10,10 0 0 0 180,-410"/>
    <text font-size="18.0622" style="fill: #000000;text-anchor:middle;font-family:sans-serif;font-style:normal;font-weight:normal" x="130" y="-444.489">
      <tspan x="130" y="-444.489">c-heap</tspan>
    </text>
  </g>
</svg>
